<svg width="36" height="36" viewBox="0 0 36 36" fill="none" xmlns="http://www.w3.org/2000/svg">
<circle cx="18" cy="18" r="18" fill="#F1F1F1"/>
<path d="M35.4614 22.3543C33.0571 31.9972 23.2893 37.8658 13.6441 35.4611C4.00295 33.0571 -1.86622 23.2897 0.539134 13.6476C2.94238 4.00354 12.7102 -1.86541 22.3524 0.538621C31.9969 2.94265 37.8657 12.7111 35.4612 22.3545L35.4613 22.3543H35.4614Z" fill="#F7931A"/>
<path d="M25.9639 15.4047C26.3222 13.0093 24.4983 11.7217 22.0042 10.8627L22.8133 7.61795L20.8379 7.12578L20.0503 10.2851C19.5309 10.1556 18.9976 10.0336 18.4676 9.91262L19.2609 6.73241L17.2867 6.24023L16.4772 9.48397C16.0474 9.38613 15.6253 9.28944 15.2158 9.18756L15.2181 9.17735L12.4939 8.49716L11.9685 10.6068C11.9685 10.6068 13.4341 10.9427 13.4032 10.9634C14.2031 11.163 14.3478 11.6925 14.3237 12.1122L13.4021 15.8088C13.4572 15.8227 13.5286 15.843 13.6075 15.8747C13.5416 15.8583 13.4714 15.8404 13.3987 15.823L12.1069 21.0014C12.0091 21.2444 11.761 21.6091 11.2017 21.4706C11.2215 21.4993 9.76592 21.1123 9.76592 21.1123L8.78516 23.3733L11.3559 24.0141C11.8341 24.134 12.3027 24.2595 12.7643 24.3774L11.9468 27.6595L13.9199 28.1516L14.7295 24.9045C15.2685 25.0508 15.7916 25.1857 16.3037 25.313L15.4969 28.5448L17.4725 29.037L18.2898 25.7611C21.6583 26.3986 24.1912 26.1416 25.2573 23.0951C26.1164 20.6423 25.2145 19.2276 23.4424 18.305C24.7331 18.0073 25.7054 17.1585 25.9646 15.405L25.964 15.4046L25.9639 15.4047ZM21.4505 21.733C20.84 24.1857 16.7098 22.8598 15.3708 22.5274L16.4555 18.1793C17.7945 18.5135 22.0885 19.175 21.4506 21.733H21.4505ZM22.0614 15.3692C21.5045 17.6003 18.0669 16.4668 16.9518 16.1888L17.9353 12.2454C19.0504 12.5233 22.6416 13.0421 22.0616 15.3692H22.0614Z" fill="white"/>
</svg>
