<svg width="327" height="100" viewBox="0 0 327 100" fill="none" xmlns="http://www.w3.org/2000/svg">
<g clip-path="url(#clip0_14007_157968)">
<path d="M0 0H327V96C327 98.2091 325.209 100 323 100H4C1.79086 100 0 98.2091 0 96V0Z" fill="#E9E9E9"/>
<rect x="16.8398" y="-7" width="5" height="127.73" transform="rotate(30 16.8398 -7)" fill="#F1F1F1"/>
<rect x="213.527" y="-7" width="5" height="127.73" transform="rotate(30 213.527 -7)" fill="#F1F1F1"/>
<rect x="115.184" y="-7" width="5" height="127.73" transform="rotate(30 115.184 -7)" fill="#F1F1F1"/>
<rect x="311.871" y="-7" width="5" height="127.73" transform="rotate(30 311.871 -7)" fill="#F1F1F1"/>
<rect x="66.0117" y="-7" width="5" height="127.73" transform="rotate(30 66.0117 -7)" fill="#F1F1F1"/>
<rect x="262.699" y="-7" width="5" height="127.73" transform="rotate(30 262.699 -7)" fill="#F1F1F1"/>
<rect x="164.355" y="-7" width="5" height="127.73" transform="rotate(30 164.355 -7)" fill="#F1F1F1"/>
<rect x="361.043" y="-7" width="5" height="127.73" transform="rotate(30 361.043 -7)" fill="#F1F1F1"/>
<rect x="0.449219" y="-7" width="5" height="127.73" transform="rotate(30 0.449219 -7)" fill="#F1F1F1"/>
<rect x="197.137" y="-7" width="5" height="127.73" transform="rotate(30 197.137 -7)" fill="#F1F1F1"/>
<rect x="98.793" y="-7" width="5" height="127.73" transform="rotate(30 98.793 -7)" fill="#F1F1F1"/>
<rect x="295.48" y="-7" width="5" height="127.73" transform="rotate(30 295.48 -7)" fill="#F1F1F1"/>
<rect x="49.6211" y="-7" width="5" height="127.73" transform="rotate(30 49.6211 -7)" fill="#F1F1F1"/>
<rect x="246.309" y="-7" width="5" height="127.73" transform="rotate(30 246.309 -7)" fill="#F1F1F1"/>
<rect x="147.965" y="-7" width="5" height="127.73" transform="rotate(30 147.965 -7)" fill="#F1F1F1"/>
<rect x="344.652" y="-7" width="5" height="127.73" transform="rotate(30 344.652 -7)" fill="#F1F1F1"/>
<rect x="180.746" y="-7" width="5" height="127.73" transform="rotate(30 180.746 -7)" fill="#F1F1F1"/>
<rect x="82.4023" y="-7" width="5" height="127.73" transform="rotate(30 82.4023 -7)" fill="#F1F1F1"/>
<rect x="279.09" y="-7" width="5" height="127.73" transform="rotate(30 279.09 -7)" fill="#F1F1F1"/>
<rect x="33.2305" y="-7" width="5" height="127.73" transform="rotate(30 33.2305 -7)" fill="#F1F1F1"/>
<rect x="229.918" y="-7" width="5" height="127.73" transform="rotate(30 229.918 -7)" fill="#F1F1F1"/>
<rect x="131.574" y="-7" width="5" height="127.73" transform="rotate(30 131.574 -7)" fill="#F1F1F1"/>
<rect x="328.262" y="-7" width="5" height="127.73" transform="rotate(30 328.262 -7)" fill="#F1F1F1"/>
<rect x="377.434" y="-7" width="5" height="127.73" transform="rotate(30 377.434 -7)" fill="#F1F1F1"/>
<rect x="8.64453" y="-7" width="5" height="127.73" transform="rotate(30 8.64453 -7)" fill="#F1F1F1"/>
<rect x="205.332" y="-7" width="5" height="127.73" transform="rotate(30 205.332 -7)" fill="#F1F1F1"/>
<rect x="106.988" y="-7" width="5" height="127.73" transform="rotate(30 106.988 -7)" fill="#F1F1F1"/>
<rect x="303.676" y="-7" width="5" height="127.73" transform="rotate(30 303.676 -7)" fill="#F1F1F1"/>
<rect x="57.8164" y="-7" width="5" height="127.73" transform="rotate(30 57.8164 -7)" fill="#F1F1F1"/>
<rect x="254.504" y="-7" width="5" height="127.73" transform="rotate(30 254.504 -7)" fill="#F1F1F1"/>
<rect x="156.16" y="-7" width="5" height="127.73" transform="rotate(30 156.16 -7)" fill="#F1F1F1"/>
<rect x="352.848" y="-7" width="5" height="127.73" transform="rotate(30 352.848 -7)" fill="#F1F1F1"/>
<rect x="188.941" y="-7" width="5" height="127.73" transform="rotate(30 188.941 -7)" fill="#F1F1F1"/>
<rect x="90.5977" y="-7" width="5" height="127.73" transform="rotate(30 90.5977 -7)" fill="#F1F1F1"/>
<rect x="287.285" y="-7" width="5" height="127.73" transform="rotate(30 287.285 -7)" fill="#F1F1F1"/>
<rect x="41.4258" y="-7" width="5" height="127.73" transform="rotate(30 41.4258 -7)" fill="#F1F1F1"/>
<rect x="238.113" y="-7" width="5" height="127.73" transform="rotate(30 238.113 -7)" fill="#F1F1F1"/>
<rect x="139.77" y="-7" width="5" height="127.73" transform="rotate(30 139.77 -7)" fill="#F1F1F1"/>
<rect x="336.457" y="-7" width="5" height="127.73" transform="rotate(30 336.457 -7)" fill="#F1F1F1"/>
<rect x="385.629" y="-7" width="5" height="127.73" transform="rotate(30 385.629 -7)" fill="#F1F1F1"/>
<rect x="172.551" y="-7" width="5" height="127.73" transform="rotate(30 172.551 -7)" fill="#F1F1F1"/>
<rect x="74.207" y="-7" width="5" height="127.73" transform="rotate(30 74.207 -7)" fill="#F1F1F1"/>
<rect x="270.895" y="-7" width="5" height="127.73" transform="rotate(30 270.895 -7)" fill="#F1F1F1"/>
<rect x="25.0352" y="-7" width="5" height="127.73" transform="rotate(30 25.0352 -7)" fill="#F1F1F1"/>
<rect x="221.723" y="-7" width="5" height="127.73" transform="rotate(30 221.723 -7)" fill="#F1F1F1"/>
<rect x="123.379" y="-7" width="5" height="127.73" transform="rotate(30 123.379 -7)" fill="#F1F1F1"/>
<rect x="320.066" y="-7" width="5" height="127.73" transform="rotate(30 320.066 -7)" fill="#F1F1F1"/>
<rect x="369.238" y="-7" width="5" height="127.73" transform="rotate(30 369.238 -7)" fill="#F1F1F1"/>
</g>
<defs>
<clipPath id="clip0_14007_157968">
<path d="M0 0H327V96C327 98.2091 325.209 100 323 100H4C1.79086 100 0 98.2091 0 96V0Z" fill="white"/>
</clipPath>
</defs>
</svg>
