<svg width="327" height="151" viewBox="0 0 327 151" fill="none" xmlns="http://www.w3.org/2000/svg">
<path fill-rule="evenodd" clip-rule="evenodd" d="M259 0H260V0.5H261V0H262V0.5H263V0H264V0.5H265V0H266V0.5H267V0H268V0.5H269V0H270V0.5H271V0H272V0.5H273V0H274V0.5H275V0H276V0.5H277V0H278V0.5H279V0H280V0.5H281V0H282V0.5H283V0H284V0.5H285V0H286V0.5H287V0H288V0.5H289V0H290V0.5H291V0H292V0.5H293V0H294V0.5H295V0H296V0.5H297V0H298V0.5H299V0H300V0.5H301V0H302V0.5H303V0H304V0.5H305V0H306V0.5H307V0H308V0.5H309V0H310V0.5H311V0H312V0.5H313V0H314V0.5H315V0H316V0.5H317V0H318V0.5H319V0H320V0.5H321V0H322V0.5H323V0H324V0.5H325V0H326V0.5H327V151H0V0.5H1V0H2V0.5H3V0H4V0.5H5V0H6V0.5H7V0H8V0.5H9V0H10V0.5H11V0H12V0.5H13V0H14V0.5H15V0H16V0.5H17V0H18V0.5H19V0H20V0.5H21V0H22V0.5H23V0H24V0.5H25V0H26V0.5H27V0H28V0.5H29V0H30V0.5H31V0H32V0.5H33V0H34V0.5H35V0H36V0.5H37V0H38V0.5H39V0H40V0.5H41V0H42V0.5H43V0H44V0.5H45V0H46V0.5H47V0H48V0.5H49V0H50V0.5H51V0H52V0.5H53V0H54V0.5H55V0H56V0.5H57V0H58V0.5H59V0H60V0.5H61V0H62V0.5H63V0H64V0.5H65V0H66V0.5H67V0H68V0.5H69V0H70V0.5H71V0H72V0.5H73V0H74V0.5H75V0H76V0.5H77V0H78V0.5H79V0H80V0.5H81V0H82V0.5H83V0H84V0.5H85V0H86V0.5H87V0H88V0.5H89V0H90V0.5H91V0H92V0.5H93V0H94V0.5H95V0H96V0.5H97V0H98V0.5H99V0H100V0.5H101V0H102V0.5H103V0H104V0.5H105V0H106V0.5H107V0H108V0.5H109V0H110V0.5H111V0H112V0.5H113V0H114V0.5H115V0H116V0.5H117V0H118V0.5H119V0H120V0.5H121V0H122V0.5H123V0H124V0.5H125V0H126V0.5H127V0H128V0.5H129V0H130V0.5H131V0H132V0.5H133V0H134V0.5H135V0H136V0.5H137V0H138V0.5H139V0H140V0.5H141V0H142V0.5H143V0H144V0.5H145V0H146V0.5H147V0H148V0.5H149V0H150V0.5H151V0H152V0.5H153V0H154V0.5H155V0H156V0.5H157V0H158V0.5H159V0H160V0.5H161V0H162V0.5H163V0H164V0.5H165V0H166V0.5H167V0H168V0.5H169V0H170V0.5H171V0H172V0.5H173V0H174V0.5H175V0H176V0.5H177V0H178V0.5H179V0H180V0.5H181V0H182V0.5H183V0H184V0.5H185V0H186V0.5H187V0H188V0.5H189V0H190V0.5H191V0H192V0.5H193V0H194V0.5H195V0H196V0.5H197V0H198V0.5H199V0H200V0.5H201V0H202V0.5H203V0H204V0.5H205V0H206V0.5H207V0H208V0.5H209V0H210V0.5H211V0H212V0.5H213V0H214V0.5H215V0H216V0.5H217V0H218V0.5H219V0H220V0.5H221V0H222V0.5H223V0H224V0.5H225V0H226V0.5H227V0H228V0.5H229V0H230V0.5H231V0H232V0.5H233V0H234V0.5H235V0H236V0.5H237V0H238V0.5H239V0H240V0.5H241V0H242V0.5H243V0H244V0.5H245V0H246V0.5H247V0H248V0.5H249V0H250V0.5H251V0H252V0.5H253V0H254V0.5H255V0H256V0.5H257V0H258V0.5H259V0Z" fill="#F3F4F3"/>
</svg>
