<svg width="303" height="94" viewBox="0 0 303 94" fill="none" xmlns="http://www.w3.org/2000/svg">
<g clip-path="url(#clip0_14139_102410)">
<path d="M0 0.714844H303V89.669C303 91.716 301.341 93.3754 299.294 93.3754H3.70642C1.65942 93.3754 0 91.716 0 89.669V0.714844Z" fill="#E9E9E9"/>
<rect x="15.6055" y="-5.77148" width="4.63303" height="118.355" transform="rotate(30 15.6055 -5.77148)" fill="#F1F1F1"/>
<rect x="197.855" y="-5.77148" width="4.63303" height="118.355" transform="rotate(30 197.855 -5.77148)" fill="#F1F1F1"/>
<rect x="106.73" y="-5.77148" width="4.63303" height="118.355" transform="rotate(30 106.73 -5.77148)" fill="#F1F1F1"/>
<rect x="288.98" y="-5.77148" width="4.63303" height="118.355" transform="rotate(30 288.98 -5.77148)" fill="#F1F1F1"/>
<rect x="61.168" y="-5.77148" width="4.63303" height="118.355" transform="rotate(30 61.168 -5.77148)" fill="#F1F1F1"/>
<rect x="243.418" y="-5.77148" width="4.63303" height="118.355" transform="rotate(30 243.418 -5.77148)" fill="#F1F1F1"/>
<rect x="152.293" y="-5.77148" width="4.63303" height="118.355" transform="rotate(30 152.293 -5.77148)" fill="#F1F1F1"/>
<rect x="334.543" y="-5.77148" width="4.63303" height="118.355" transform="rotate(30 334.543 -5.77148)" fill="#F1F1F1"/>
<rect x="0.414062" y="-5.77148" width="4.63303" height="118.355" transform="rotate(30 0.414062 -5.77148)" fill="#F1F1F1"/>
<rect x="182.668" y="-5.77148" width="4.63303" height="118.355" transform="rotate(30 182.668 -5.77148)" fill="#F1F1F1"/>
<rect x="91.543" y="-5.77148" width="4.63303" height="118.355" transform="rotate(30 91.543 -5.77148)" fill="#F1F1F1"/>
<rect x="273.793" y="-5.77148" width="4.63303" height="118.355" transform="rotate(30 273.793 -5.77148)" fill="#F1F1F1"/>
<rect x="45.9805" y="-5.77148" width="4.63303" height="118.355" transform="rotate(30 45.9805 -5.77148)" fill="#F1F1F1"/>
<rect x="228.23" y="-5.77148" width="4.63303" height="118.355" transform="rotate(30 228.23 -5.77148)" fill="#F1F1F1"/>
<rect x="137.105" y="-5.77148" width="4.63303" height="118.355" transform="rotate(30 137.105 -5.77148)" fill="#F1F1F1"/>
<rect x="319.355" y="-5.77148" width="4.63303" height="118.355" transform="rotate(30 319.355 -5.77148)" fill="#F1F1F1"/>
<rect x="167.48" y="-5.77148" width="4.63303" height="118.355" transform="rotate(30 167.48 -5.77148)" fill="#F1F1F1"/>
<rect x="76.3555" y="-5.77148" width="4.63303" height="118.355" transform="rotate(30 76.3555 -5.77148)" fill="#F1F1F1"/>
<rect x="258.605" y="-5.77148" width="4.63303" height="118.355" transform="rotate(30 258.605 -5.77148)" fill="#F1F1F1"/>
<rect x="30.793" y="-5.77148" width="4.63303" height="118.355" transform="rotate(30 30.793 -5.77148)" fill="#F1F1F1"/>
<rect x="213.043" y="-5.77148" width="4.63303" height="118.355" transform="rotate(30 213.043 -5.77148)" fill="#F1F1F1"/>
<rect x="121.918" y="-5.77148" width="4.63303" height="118.355" transform="rotate(30 121.918 -5.77148)" fill="#F1F1F1"/>
<rect x="304.168" y="-5.77148" width="4.63303" height="118.355" transform="rotate(30 304.168 -5.77148)" fill="#F1F1F1"/>
<rect x="349.73" y="-5.77148" width="4.63303" height="118.355" transform="rotate(30 349.73 -5.77148)" fill="#F1F1F1"/>
<rect x="8.01172" y="-5.77148" width="4.63303" height="118.355" transform="rotate(30 8.01172 -5.77148)" fill="#F1F1F1"/>
<rect x="190.262" y="-5.77148" width="4.63303" height="118.355" transform="rotate(30 190.262 -5.77148)" fill="#F1F1F1"/>
<rect x="99.1367" y="-5.77148" width="4.63303" height="118.355" transform="rotate(30 99.1367 -5.77148)" fill="#F1F1F1"/>
<rect x="281.387" y="-5.77148" width="4.63303" height="118.355" transform="rotate(30 281.387 -5.77148)" fill="#F1F1F1"/>
<rect x="53.5742" y="-5.77148" width="4.63303" height="118.355" transform="rotate(30 53.5742 -5.77148)" fill="#F1F1F1"/>
<rect x="235.824" y="-5.77148" width="4.63303" height="118.355" transform="rotate(30 235.824 -5.77148)" fill="#F1F1F1"/>
<rect x="144.699" y="-5.77148" width="4.63303" height="118.355" transform="rotate(30 144.699 -5.77148)" fill="#F1F1F1"/>
<rect x="326.949" y="-5.77148" width="4.63303" height="118.355" transform="rotate(30 326.949 -5.77148)" fill="#F1F1F1"/>
<rect x="175.074" y="-5.77148" width="4.63303" height="118.355" transform="rotate(30 175.074 -5.77148)" fill="#F1F1F1"/>
<rect x="83.9492" y="-5.77148" width="4.63303" height="118.355" transform="rotate(30 83.9492 -5.77148)" fill="#F1F1F1"/>
<rect x="266.199" y="-5.77148" width="4.63303" height="118.355" transform="rotate(30 266.199 -5.77148)" fill="#F1F1F1"/>
<rect x="38.3867" y="-5.77148" width="4.63303" height="118.355" transform="rotate(30 38.3867 -5.77148)" fill="#F1F1F1"/>
<rect x="220.637" y="-5.77148" width="4.63303" height="118.355" transform="rotate(30 220.637 -5.77148)" fill="#F1F1F1"/>
<rect x="129.512" y="-5.77148" width="4.63303" height="118.355" transform="rotate(30 129.512 -5.77148)" fill="#F1F1F1"/>
<rect x="311.762" y="-5.77148" width="4.63303" height="118.355" transform="rotate(30 311.762 -5.77148)" fill="#F1F1F1"/>
<rect x="357.324" y="-5.77148" width="4.63303" height="118.355" transform="rotate(30 357.324 -5.77148)" fill="#F1F1F1"/>
<rect x="159.887" y="-5.77148" width="4.63303" height="118.355" transform="rotate(30 159.887 -5.77148)" fill="#F1F1F1"/>
<rect x="68.7617" y="-5.77148" width="4.63303" height="118.355" transform="rotate(30 68.7617 -5.77148)" fill="#F1F1F1"/>
<rect x="251.012" y="-5.77148" width="4.63303" height="118.355" transform="rotate(30 251.012 -5.77148)" fill="#F1F1F1"/>
<rect x="23.1992" y="-5.77148" width="4.63303" height="118.355" transform="rotate(30 23.1992 -5.77148)" fill="#F1F1F1"/>
<rect x="205.449" y="-5.77148" width="4.63303" height="118.355" transform="rotate(30 205.449 -5.77148)" fill="#F1F1F1"/>
<rect x="114.324" y="-5.77148" width="4.63303" height="118.355" transform="rotate(30 114.324 -5.77148)" fill="#F1F1F1"/>
<rect x="296.574" y="-5.77148" width="4.63303" height="118.355" transform="rotate(30 296.574 -5.77148)" fill="#F1F1F1"/>
<rect x="342.137" y="-5.77148" width="4.63303" height="118.355" transform="rotate(30 342.137 -5.77148)" fill="#F1F1F1"/>
</g>
<defs>
<clipPath id="clip0_14139_102410">
<path d="M0 0.714844H303V89.669C303 91.716 301.341 93.3754 299.294 93.3754H3.70642C1.65942 93.3754 0 91.716 0 89.669V0.714844Z" fill="white"/>
</clipPath>
</defs>
</svg>
