<svg width="85" height="63" viewBox="0 0 85 63" fill="none" xmlns="http://www.w3.org/2000/svg">
<path d="M76.4489 29.975C70.2064 28.3525 68.1989 26.675 68.1989 24.0625C68.1989 21.065 70.9764 18.975 75.6239 18.975C80.5189 18.975 82.3339 21.3125 82.4989 24.75H88.5764C88.3839 20.02 85.4964 15.675 79.7489 14.2725V8.25H71.4989V14.19C66.1639 15.345 61.8739 18.81 61.8739 24.1175C61.8739 30.47 67.1264 33.6325 74.7989 35.475C81.6739 37.125 83.0489 39.545 83.0489 42.1025C83.0489 44 81.7014 47.025 75.6239 47.025C69.9589 47.025 67.7314 44.495 67.4289 41.25H61.3789C61.7089 47.2725 66.2189 50.655 71.4989 51.7825V57.75H79.7489V51.8375C85.1114 50.82 89.3739 47.7125 89.3739 42.075C89.3739 34.265 82.6914 31.5975 76.4489 29.975Z" fill="#050503"/>
<path d="M46.6326 30.9833C42.4709 29.9017 41.1326 28.7833 41.1326 27.0417C41.1326 25.0433 42.9843 23.65 46.0826 23.65C49.3459 23.65 50.5559 25.2083 50.6659 27.5H54.7176C54.5893 24.3467 52.6643 21.45 48.8326 20.515V16.5H43.3326V20.46C39.7759 21.23 36.9159 23.54 36.9159 27.0783C36.9159 31.3133 40.4176 33.4217 45.5326 34.65C50.1159 35.75 51.0326 37.3633 51.0326 39.0683C51.0326 40.3333 50.1343 42.35 46.0826 42.35C42.3059 42.35 40.8209 40.6633 40.6193 38.5H36.5859C36.8059 42.515 39.8126 44.77 43.3326 45.5217V49.5H48.8326V45.5583C52.4076 44.88 55.2493 42.8083 55.2493 39.05C55.2493 33.8433 50.7943 32.065 46.6326 30.9833Z" fill="#050503"/>
<path d="M24.7484 31.625C21.9109 30.8875 20.9984 30.125 20.9984 28.9375C20.9984 27.575 22.2609 26.625 24.3734 26.625C26.5984 26.625 27.4234 27.6875 27.4984 29.25H30.2609C30.1734 27.1 28.8609 25.125 26.2484 24.4875V21.75H22.4984V24.45C20.0734 24.975 18.1234 26.55 18.1234 28.9625C18.1234 31.85 20.5109 33.2875 23.9984 34.125C27.1234 34.875 27.7484 35.975 27.7484 37.1375C27.7484 38 27.1359 39.375 24.3734 39.375C21.7984 39.375 20.7859 38.225 20.6484 36.75H17.8984C18.0484 39.4875 20.0984 41.025 22.4984 41.5375V44.25H26.2484V41.5625C28.6859 41.1 30.6234 39.6875 30.6234 37.125C30.6234 33.575 27.5859 32.3625 24.7484 31.625Z" fill="#050503"/>
<path d="M8.84828 32.175C7.14578 31.7325 6.59828 31.275 6.59828 30.5625C6.59828 29.745 7.35578 29.175 8.62328 29.175C9.95828 29.175 10.4533 29.8125 10.4983 30.75H12.1558C12.1033 29.46 11.3158 28.275 9.74828 27.8925V26.25H7.49828V27.87C6.04328 28.185 4.87328 29.13 4.87328 30.5775C4.87328 32.31 6.30578 33.1725 8.39828 33.675C10.2733 34.125 10.6483 34.785 10.6483 35.4825C10.6483 36 10.2808 36.825 8.62328 36.825C7.07828 36.825 6.47078 36.135 6.38828 35.25H4.73828C4.82828 36.8925 6.05828 37.815 7.49828 38.1225V39.75H9.74828V38.1375C11.2108 37.86 12.3733 37.0125 12.3733 35.475C12.3733 33.345 10.5508 32.6175 8.84828 32.175Z" fill="#050503"/>
</svg>
